<?xml version="1.0" encoding="UTF-8" standalone="no"?>
<svg width="125px" height="42px" viewBox="0 0 125 42" version="1.1" xmlns="http://www.w3.org/2000/svg" xmlns:xlink="http://www.w3.org/1999/xlink">
    <!-- Generator: Sketch 40.1 (33804) - http://www.bohemiancoding.com/sketch -->
    <title>cloudflare-logo</title>
    <desc>Created with Sketch.</desc>
    <defs>
        <polygon id="path-1" points="45.8762929 0.00317288729 0.109765625 0.00317288729 0.109765625 26.5196803 45.8762929 26.5196803 45.8762929 0.00317288729"></polygon>
    </defs>
    <g id="Page-1" stroke="none" stroke-width="1" fill="none" fill-rule="evenodd">
        <g id="cloudflare-logo">
            <path d="M104.901519,26.2954227 L105.244401,25.4110664 C106.216623,22.9058187 108.993099,20.8521753 111.569054,20.7352038 L116.31428,20.464841 C116.530859,20.4554147 116.739193,20.2977387 116.810807,20.0895037 C116.856814,19.9553934 116.839453,19.8148562 116.763064,19.7055971 C116.690582,19.601908 116.572092,19.5380664 116.437109,19.5312109 L111.871137,19.2608481 C110.740061,19.2077182 109.809071,18.7543999 109.250043,17.9810165 C108.642839,17.1429347 108.507856,16.0032119 108.869835,14.7687979 L109.712283,11.8967822 C109.743533,11.7900938 109.82513,11.7078281 109.927995,11.6722653 L109.917144,11.6662668 L108.688845,11.1341105 C108.68928,11.226231 108.674089,11.317923 108.640234,11.4044733 L107.407161,14.5849854 C106.434939,17.0902332 103.658464,19.1447335 101.093793,19.2608481 L79.4740017,19.5312109 C79.2565538,19.5406372 79.0473524,19.6983131 78.9766059,19.9065482 C78.930599,20.04023 78.9479601,20.1799103 79.0221788,20.2883125 C79.0959635,20.3941439 79.2153212,20.4579855 79.3594184,20.4656979 L100.780425,20.7352038 C101.911502,20.7879052 102.842925,21.2425089 103.401519,22.0146069 C104.008724,22.8531172 104.143707,23.9936969 103.781727,25.2281109 L103.477908,26.26543 C103.414106,26.4813775 103.214887,26.6287702 102.988759,26.6339118 L105.12678,26.6343403 C104.955339,26.625771 104.839019,26.455241 104.901519,26.2954227" id="Fill-1" fill="#FFFFFF"></path>
            <g id="Group-5" transform="translate(62.812500, 0.116203)">
                <mask id="mask-2" fill="white">
                    <use xlink:href="#path-1"></use>
                </mask>
                <g id="Clip-4"></g>
                <path d="M40.6653212,26.1490561 L40.9691406,25.111737 C41.3311198,23.8777514 41.1965712,22.7367433 40.5889323,21.8986614 C40.0303385,21.1265635 39.0989149,20.6719598 37.9682726,20.6192583 L16.5468316,20.349324 C16.4027344,20.34204 16.2833767,20.2777699 16.210026,20.172367 C16.1353733,20.0639648 16.1180122,19.9242845 16.1640191,19.7901743 C16.2347656,19.5819392 16.443967,19.4246917 16.6614149,19.4152655 L38.2812066,19.1444742 C40.8458767,19.0283596 43.6223524,16.9738593 44.5945747,14.4686115 L45.8276476,11.2885279 C45.8615017,11.2019775 45.8771267,11.1102855 45.8762587,11.0181651 C45.8758247,10.9680344 45.8723524,10.9174753 45.8610677,10.8677731 C44.460026,4.6515708 38.8411024,0.00313004057 32.1219184,0.00313004057 C25.9309462,0.00313004057 20.6740017,3.94802764 18.7885851,9.43112253 C17.5720052,8.52962752 16.0151476,8.05060118 14.3415365,8.21556105 C11.3710503,8.50691875 8.9843316,10.8677731 8.68919271,13.8002027 C8.61193576,14.5611604 8.67486979,15.2955532 8.85282118,15.9858139 C4.00082465,16.1254942 0.109765625,20.0498254 0.109765625,24.8735092 C0.109765625,25.3101173 0.143185764,25.739013 0.205251736,26.1584824 C0.235633681,26.3620043 0.409678819,26.5149671 0.617578125,26.5149671 L40.1648872,26.5196803 C40.1687934,26.5196803 40.1722656,26.5179664 40.1761719,26.5179664 C40.4023003,26.5128248 40.6015191,26.3650036 40.6653212,26.1490561" id="Fill-3" fill="#F4811F" mask="url(#mask-2)"></path>
            </g>
            <path d="M110.614019,11.6375595 C110.415234,11.6375595 110.217752,11.6431296 110.020703,11.6525559 C109.988585,11.6542697 109.957769,11.6619821 109.927821,11.6722653 C109.825391,11.7078281 109.743359,11.7900938 109.712543,11.8967822 L108.870095,14.7687979 C108.508116,16.0032119 108.642665,17.1429347 109.250304,17.9810165 C109.808898,18.7543999 110.739887,19.2077182 111.870964,19.2608481 L116.43737,19.5312109 C116.571918,19.5380664 116.690408,19.601908 116.762891,19.7055971 C116.83928,19.8152847 116.856641,19.9553934 116.810634,20.0895037 C116.739019,20.2977387 116.530686,20.4554147 116.314106,20.464841 L111.569314,20.7352038 C108.993359,20.8521753 106.216884,22.9058187 105.244227,25.4110664 L104.901345,26.2954227 C104.83928,26.4556695 104.955165,26.625771 105.126606,26.6343403 C105.130946,26.6343403 105.134852,26.6356257 105.139193,26.6356257 L121.466016,26.6356257 C121.660894,26.6356257 121.834505,26.5105133 121.887023,26.3254155 C122.170877,25.3300861 122.321918,24.2803415 122.321918,23.1954625 C122.321918,16.812158 117.080165,11.6375595 110.614019,11.6375595" id="Fill-6" fill="#FAAD3F"></path>
            <path d="M124.075477,32.3676172 C124.166189,32.3676172 124.256033,32.3213427 124.256033,32.1923741 C124.256033,32.0621201 124.186155,32.0167026 124.075477,32.0167026 L123.734332,32.0167026 L123.734332,32.3676172 L124.075477,32.3676172 Z M124.477387,32.9661859 L124.227387,32.9661859 L124.017318,32.566426 L123.734332,32.566426 L123.734332,32.9636151 L123.515582,32.9636151 L123.515582,31.8178938 L124.072439,31.8178938 C124.317231,31.8178938 124.471745,31.964858 124.471745,32.1923741 C124.471745,32.3564771 124.375391,32.488445 124.229991,32.5402895 L124.477387,32.9661859 Z M123.944401,31.5698113 C123.477387,31.5698113 123.098481,31.9498617 123.098481,32.4164625 C123.098481,32.8860625 123.477387,33.2661129 123.944401,33.2661129 C124.410547,33.2661129 124.789887,32.8860625 124.789887,32.4164625 C124.789887,31.9498617 124.410547,31.5698113 123.944401,31.5698113 L123.944401,31.5698113 Z M123.944401,33.4584947 C123.361068,33.4584947 122.888411,32.9927509 122.888411,32.4164625 C122.888411,31.8431733 123.361068,31.3774295 123.944401,31.3774295 C124.5273,31.3774295 124.999957,31.8431733 124.999957,32.4164625 C124.999957,32.9927509 124.5273,33.4584947 123.944401,33.4584947 L123.944401,33.4584947 Z" id="Fill-8" fill="#404242"></path>
            <polygon id="Fill-10" fill="#404242" points="13.4213542 31.2708697 16.1253472 31.2708697 16.1253472 38.5629531 20.8501736 38.5629531 20.8501736 40.9015272 13.4213542 40.9015272"></polygon>
            <path d="M31.3992187,36.1138346 L31.3992187,36.0864127 C31.3992187,34.6968935 30.3818576,33.4860452 28.8909722,33.4860452 C27.4135417,33.4860452 26.4239583,34.6694716 26.4239583,36.0589908 L26.4239583,36.0864127 C26.4239583,37.4763603 27.4413194,38.6867802 28.91875,38.6867802 C30.4096354,38.6867802 31.3992187,37.5037822 31.3992187,36.1138346 M23.6505208,36.1138346 L23.6505208,36.0864127 C23.6505208,33.3210853 25.9083333,31.0780594 28.91875,31.0780594 C31.9291667,31.0780594 34.1583333,33.2936634 34.1583333,36.0589908 L34.1583333,36.0864127 C34.1583333,38.85174 31.9005208,41.0939089 28.8909722,41.0939089 C25.8805556,41.0939089 23.6505208,38.8791619 23.6505208,36.1138346" id="Fill-12" fill="#404242"></path>
            <path d="M37.4678819,36.6778688 L37.4678819,31.2706126 L40.2139757,31.2706126 L40.2139757,36.623025 C40.2139757,38.0129726 40.9244792,38.6728121 42.0112847,38.6728121 C43.0980903,38.6728121 43.8090278,38.0403945 43.8090278,36.6920082 L43.8090278,31.2706126 L46.5546875,31.2706126 L46.5546875,36.6088856 C46.5546875,39.7187006 44.7573785,41.0799409 41.9835069,41.0799409 C39.2100694,41.0799409 37.4678819,39.6912787 37.4678819,36.6778688" id="Fill-14" fill="#404242"></path>
            <path d="M54.4977431,38.5352313 C56.1149306,38.5352313 57.1874132,37.6547312 57.1874132,36.0998237 L57.1874132,36.0724018 C57.1874132,34.5316337 56.1149306,33.6369942 54.4977431,33.6369942 L53.3966146,33.6369942 L53.3966146,38.5352313 L54.4977431,38.5352313 Z M50.6926215,31.2714267 L54.4556424,31.2714267 C57.9400174,31.2714267 59.9608507,33.2522306 59.9608507,36.0308405 L59.9608507,36.0591193 C59.9608507,38.8377292 57.9122396,40.9016557 54.4000868,40.9016557 L50.6926215,40.9016557 L50.6926215,31.2714267 Z" id="Fill-16" fill="#404242"></path>
            <polygon id="Fill-18" fill="#404242" points="63.8904514 31.2708697 71.6947049 31.2708697 71.6947049 33.6103006 66.5944444 33.6103006 66.5944444 35.2470454 71.2072917 35.2470454 71.2072917 37.4617924 66.5944444 37.4617924 66.5944444 40.9015272 63.8904514 40.9015272"></polygon>
            <polygon id="Fill-20" fill="#404242" points="75.4569878 31.2708697 78.1609809 31.2708697 78.1609809 38.5629531 82.8858073 38.5629531 82.8858073 40.9015272 75.4569878 40.9015272"></polygon>
            <path d="M92.3198785,37.1044936 L91.2330729,34.3665881 L90.1315104,37.1044936 L92.3198785,37.1044936 Z M89.9513889,31.2019293 L92.5568576,31.2019293 L96.7105035,40.90157 L93.8116319,40.90157 L93.1002604,39.1817026 L89.3372396,39.1817026 L88.640625,40.90157 L85.797309,40.90157 L89.9513889,31.2019293 Z" id="Fill-22" fill="#404242"></path>
            <path d="M104.681076,35.8935596 C105.600781,35.8935596 106.130729,35.4530953 106.130729,34.7516945 L106.130729,34.7242725 C106.130729,33.967171 105.573003,33.5824074 104.666753,33.5824074 L102.896788,33.5824074 L102.896788,35.8935596 L104.681076,35.8935596 Z M100.193229,31.2708268 L104.806076,31.2708268 C106.298264,31.2708268 107.328646,31.6564473 107.984028,32.3162868 C108.556076,32.8668672 108.848177,33.6098293 108.848177,34.5593127 L108.848177,34.5867346 C108.848177,36.0585194 108.053472,37.0354247 106.841667,37.5444437 L109.168924,40.9019128 L106.046962,40.9019128 L104.082118,37.984908 L102.896788,37.984908 L102.896788,40.9019128 L100.193229,40.9019128 L100.193229,31.2708268 Z" id="Fill-24" fill="#404242"></path>
            <polygon id="Fill-26" fill="#404242" points="112.749436 31.2708697 120.59579 31.2708697 120.59579 33.5413174 115.425651 33.5413174 115.425651 34.9989629 120.108377 34.9989629 120.108377 37.1044507 115.425651 37.1044507 115.425651 38.6319363 120.665234 38.6319363 120.665234 40.9015272 112.749436 40.9015272"></polygon>
            <path d="M7.50143229,37.2429313 C7.1233941,38.0857264 6.32565104,38.6864374 5.26749132,38.6864374 C3.79006076,38.6864374 2.77269965,37.4760175 2.77269965,36.0860699 L2.77269965,36.058648 C2.77269965,34.6687004 3.76228299,33.4857024 5.23971354,33.4857024 C6.35342882,33.4857024 7.2015191,34.1618236 7.55959201,35.0817427 L10.4098524,35.0817427 C9.95325521,32.7898716 7.91289062,31.0785736 5.26749132,31.0785736 C2.25707465,31.0785736 0.000130208333,33.3207425 0.000130208333,36.0860699 L0.000130208333,36.1134918 C0.000130208333,38.8788192 2.22929687,41.0944231 5.23971354,41.0944231 C7.81480035,41.0944231 9.82695312,39.4482521 10.3582031,37.2429313 L7.50143229,37.2429313 Z" id="Fill-28" fill="#404242"></path>
        </g>
    </g>
</svg>