<?xml version="1.0" encoding="UTF-8"?>
<svg width="68px" height="48px" viewBox="0 0 68 48" version="1.1" xmlns="http://www.w3.org/2000/svg" xmlns:xlink="http://www.w3.org/1999/xlink">
    <!-- Generator: Sketch 42 (36781) - http://www.bohemiancoding.com/sketch -->
    <title>Group</title>
    <desc>Created with Sketch.</desc>
    <defs></defs>
    <g id="Styleguide" stroke="none" stroke-width="1" fill="none" fill-rule="evenodd">
        <g id="Mark">
            <g id="Group">
                <path d="M21.4877374,21.1368484 C21.7601406,21.6135539 22.4264915,22 22.9842121,22 L33.4957865,22 C34.0498635,22 34.7227436,21.6085042 34.9922611,21.1368484 L40.2915165,11.8631516 C40.5639196,11.3864461 40.5610341,10.6085042 40.2915165,10.1368484 L34.9922611,0.86315155 C34.719858,0.386446112 34.0535071,3.16107402e-17 33.4957865,7.11819887e-17 L22.9842121,8.16996431e-16 C22.4301351,8.56309158e-16 21.757255,0.391495824 21.4877374,0.86315155 L16.1884821,10.1368484 C15.916079,10.6135539 15.9189645,11.3914958 16.1884821,11.8631516 L21.4877374,21.1368484 Z" id="Shape" fill="#8DC73F"></path>
                <path d="M44.8913771,36.1268472 C45.1669365,36.6090762 45.8344339,37 46.3870157,37 L59.2329823,37 C59.7834413,37 60.4519988,36.6109358 60.7286209,36.1268472 L67.1593034,24.8731528 C67.4348628,24.3909238 67.4359255,23.6109358 67.1593034,23.1268472 L60.7286209,11.8731528 C60.4530615,11.3909238 59.785564,11 59.2329823,11 L46.3870157,11 C45.8365567,11 45.1679991,11.3890642 44.8913771,11.8731528 L38.4606945,23.1268472 C38.1851351,23.6090762 38.1840725,24.3890642 38.4606945,24.8731528 L44.8913771,36.1268472 Z" id="Shape" fill="#20BDBE"></path>
                <path d="M21.4877374,47.1368484 C21.7601406,47.6135539 22.4264915,48 22.9842121,48 L33.4957865,48 C34.0498635,48 34.7227436,47.6085042 34.9922611,47.1368484 L40.2915165,37.8631516 C40.5639196,37.3864461 40.5610341,36.6085042 40.2915165,36.1368484 L34.9922611,26.8631516 C34.719858,26.3864461 34.0535071,26 33.4957865,26 L22.9842121,26 C22.4301351,26 21.757255,26.3914958 21.4877374,26.8631516 L16.1884821,36.1368484 C15.916079,36.6135539 15.9189645,37.3914958 16.1884821,37.8631516 L21.4877374,47.1368484 Z" id="Shape" fill="#FDB813"></path>
                <path d="M4.41400952,31.1286308 C4.68900606,31.6098747 5.36003787,32 5.91348399,32 L12.9465152,32 C13.4996555,32 14.1685539,31.6141434 14.4459897,31.1286308 L18.0215677,24.8713692 C18.2965642,24.3901253 18.2990034,23.6141434 18.0215677,23.1286308 L14.4459897,16.8713692 C14.1709931,16.3901253 13.4999613,16 12.9465152,16 L5.91348399,16 C5.36034365,16 4.6914453,16.3858566 4.41400952,16.8713692 L0.838431513,23.1286308 C0.563434973,23.6098747 0.560995733,24.3858566 0.838431513,24.8713692 L4.41400952,31.1286308 Z" id="Shape" fill="#F7941D"></path>
            </g>
        </g>
    </g>
</svg>