<svg xmlns="http://www.w3.org/2000/svg" viewBox="0 0 256 256"><defs><style>.cls-1{fill:#fff;}.cls-2{fill:#b2e7e2;}.cls-3{fill:none;stroke:#00ae9e;}.cls-3,.cls-4{stroke-miterlimit:10;stroke-width:8px;}.cls-4{fill:#00ae9e;stroke:#fff;}</style></defs><title>Asset 11</title><g id="Layer_2" data-name="Layer 2"><g id="circles"><path class="cls-1" d="M128,252A124,124,0,1,1,252,128,124.14,124.14,0,0,1,128,252Z"/><path class="cls-2" d="M128,8a120,120,0,0,1,84.85,204.85A120,120,0,1,1,43.15,43.15,119.21,119.21,0,0,1,128,8m0-8A128,128,0,1,0,256,128,128,128,0,0,0,128,0Z"/></g><g id="icons"><rect class="cls-3" x="85" y="85" width="86" height="86" rx="16" ry="16"/><circle class="cls-4" cx="169.59" cy="95.31" r="37"/><path class="cls-1" d="M157.44,110.52V105c13.65-10.1,17.65-13.55,17.65-17.65,0-2.9-2.65-4.35-5.4-4.35a11.92,11.92,0,0,0-9,3.85l-4.05-4.7a17,17,0,0,1,12.85-5.45c7.1,0,12.75,4,12.75,10.65,0,5.7-4.7,10.65-13.35,17h13.6v6.25Z"/></g></g></svg>