<svg xmlns="http://www.w3.org/2000/svg" viewBox="0 0 256 256"><defs><style>.cls-1{fill:#fff;}.cls-2{fill:#bfbfbf;}.cls-3{fill:none;stroke:#737373;stroke-linecap:round;stroke-linejoin:round;stroke-width:7.31px;}</style></defs><title>Asset 7</title><g id="Layer_2" data-name="Layer 2"><g id="circles"><path class="cls-1" d="M128,252A124,124,0,1,1,252,128,124.14,124.14,0,0,1,128,252Z"/><path class="cls-2" d="M128,8a120,120,0,0,1,84.85,204.85A120,120,0,0,1,43.15,43.15,119.21,119.21,0,0,1,128,8m0-8A128,128,0,1,0,256,128,128,128,0,0,0,128,0Z"/></g><g id="icons"><path class="cls-3" d="M78.55,127.77v45.75s29.28.18,32.69,0c0,0,2.15-2.93,1-5.72l-2.45-5.92a15.24,15.24,0,1,1,26,1.26l-2.66,4.31s-1.8,4.45,1.49,6.07c1.46.72,30,0,30.74,0v-26.1c0-3.38-1.17-10.29,4-8.49l4.32,2.65a15.25,15.25,0,0,0,23.77-12.64v-2.15a15.25,15.25,0,0,0-23.77-12.64l-4.32,2.65c-5.18,1.8-4-5.11-4-8.49V82.48c-.75,0-29.28-.72-30.74,0-3.29,1.62-1.49,5.79-1.49,5.79l3,4.87-.36-.56a15.24,15.24,0,1,1-26,1.26l2.45-5.92c1.16-2.79-1-5.44-1-5.44-3.41-.18-32.69,0-32.69,0v45.29Z"/></g></g></svg>