<svg xmlns="http://www.w3.org/2000/svg" viewBox="0 0 192.9 216"><defs><style>.a{isolation:isolate;}.b,.d{fill:#0a7a96;}.b{fill-rule:evenodd;}.c{fill:#231f20;}.e{mix-blend-mode:darken;}.f{fill:#d1d3d4;}.g{fill:#a7a9ac;}</style></defs><title>Asset 1</title><g class="a"><path class="b" d="M8.58,86.21l-.74-.45a91.68,91.68,0,0,0,3,54.08,15.36,15.36,0,1,0,7.9-3.69A83.07,83.07,0,0,1,16,89,25.16,25.16,0,0,1,8.58,86.21Z"/><path class="b" d="M184.32,129.79l.74.45a91.76,91.76,0,0,0-3-54.09,15.36,15.36,0,1,0-7.91,3.7,83.05,83.05,0,0,1,2.74,47.1A25.16,25.16,0,0,1,184.32,129.79Z"/><path class="b" d="M96.65,5.66a15.35,15.35,0,1,0,14.28,21,82.41,82.41,0,0,1,42.15,21.19,25.16,25.16,0,0,1,6.18-5l.74-.41a91.1,91.1,0,0,0-48.31-24.46A15.39,15.39,0,0,0,96.65,5.66Z"/><path class="b" d="M96.65,42A21,21,0,0,0,114.7,31.75q-1.55-.37-3.12-.68a18,18,0,1,1,1.61-17.2q1.74.31,3.45.68A21,21,0,1,0,96.65,42Z"/><path class="b" d="M153.7,75.18a21,21,0,0,0,17.91,10.5q-.45-1.52-1-3a18,18,0,1,1,15.7-7.21q.6,1.66,1.14,3.33a21,21,0,1,0-33.78-3.58Z"/><path class="b" d="M185,159.34a15.35,15.35,0,1,0-25.31,1.87,82.71,82.71,0,0,1-39.4,25.94,25.23,25.23,0,0,1,1.24,7.84c0,.29,0,.58,0,.87a91.41,91.41,0,0,0,45.33-29.64A15.35,15.35,0,0,0,185,159.34Z"/><path class="b" d="M182.19,133.48a21,21,0,0,0-28.83,28.45q1.09-1.16,2.15-2.36a18,18,0,1,1,14.09,10q-1.13,1.35-2.31,2.65a21,21,0,0,0,14.91-38.73Z"/><path class="b" d="M96.25,210.34a15.35,15.35,0,1,0-14.28-21,82.41,82.41,0,0,1-42.15-21.19,25.16,25.16,0,0,1-6.18,5l-.74.41a91.1,91.1,0,0,0,48.31,24.46A15.36,15.36,0,0,0,96.25,210.34Z"/><path class="b" d="M96.25,174A21,21,0,0,0,78.2,184.25q1.55.37,3.12.68a18,18,0,1,1-1.6,17.2q-1.74-.31-3.45-.68a21,21,0,1,0,20-27.46Z"/><path class="b" d="M39.2,140.82a21,21,0,0,0-17.91-10.5q.45,1.52,1,3a18,18,0,1,1-15.7,7.21q-.6-1.66-1.14-3.33a21,21,0,1,0,33.78,3.58Z"/><path class="b" d="M7.91,56.66a15.35,15.35,0,1,0,25.31-1.87A82.72,82.72,0,0,1,72.63,28.85,25.23,25.23,0,0,1,71.39,21q0-.43,0-.86A91.41,91.41,0,0,0,26.08,49.77,15.35,15.35,0,0,0,7.91,56.66Z"/><path class="b" d="M10.7,82.52A21,21,0,0,0,39.54,54.07q-1.09,1.16-2.15,2.36a18,18,0,1,1-14.09-10q1.13-1.35,2.31-2.65A21,21,0,0,0,10.7,82.52Z"/><path class="c" d="M145.1,109.81l4-4.05a.68.68,0,0,0-1-.94l-4,4-4.07-4.09a.67.67,0,0,0-.47-.2.68.68,0,0,0-.62.42.67.67,0,0,0,.15.73l4.06,4.1-4,4a.67.67,0,0,0-.15.74.68.68,0,0,0,.62.42.67.67,0,0,0,.47-.2l4-4,4.06,3.75a.67.67,0,0,0,.48.2.68.68,0,0,0,.48-1.16Z"/><path class="c" d="M139.68,115.31a1,1,0,0,1-.91-.61,1,1,0,0,1,.22-1.08l3.78-3.81-3.84-3.88a1,1,0,0,1-.22-1.07,1,1,0,0,1,.91-.61,1,1,0,0,1,.69.29l3.85,3.87,3.78-3.81a1,1,0,0,1,1.42,1.37l-3.81,3.84,3.84,3.52a1,1,0,0,1,.21,1.1,1,1,0,0,1-.9.6,1,1,0,0,1-.7-.29l-3.83-3.54-3.8,3.82A1,1,0,0,1,139.68,115.31Zm-.06-10.43a.37.37,0,0,0-.33.23.36.36,0,0,0,.08.39l4.28,4.32-4.22,4.24a.36.36,0,0,0-.08.4.37.37,0,0,0,.59.11l4.22-4.25,4.28,4a.36.36,0,0,0,.6-.11.38.38,0,0,0-.08-.41l-4.29-3.94,4.26-4.28a.36.36,0,0,0,.06-.39.37.37,0,0,0-.59-.11l-4.22,4.26L139.87,105A.36.36,0,0,0,139.62,104.87Z"/><circle class="d" cx="158.98" cy="107.04" r="2.62" transform="translate(-2.55 3.89) rotate(-1.39)"/><circle class="d" cx="148.26" cy="94.43" r="2.62" transform="translate(-2.26 3.64) rotate(-1.4)"/><circle class="d" cx="141.32" cy="92.59" r="2.03" transform="translate(-2.21 3.47) rotate(-1.39)"/><circle class="d" cx="158.18" cy="113.74" r="1.86" transform="translate(-2.72 3.88) rotate(-1.39)"/><circle class="d" cx="153.31" cy="116.37" r="1.1" transform="translate(-2.83 3.83) rotate(-1.42)"/><circle class="d" cx="136.96" cy="95.67" r="1.21" transform="translate(-2.23 3.27) rotate(-1.36)"/><circle class="d" cx="136.55" cy="100.43" r="0.94" transform="translate(-2.37 3.3) rotate(-1.37)"/><circle class="d" cx="154.84" cy="99.83" r="3.28" transform="translate(-2.34 3.73) rotate(-1.37)"/><g class="e"><circle class="f" cx="158.18" cy="113.74" r="1.86" transform="translate(-2.72 3.88) rotate(-1.39)"/><circle class="g" cx="153.31" cy="116.37" r="1.1" transform="translate(-2.83 3.83) rotate(-1.42)"/><circle class="f" cx="136.96" cy="95.67" r="1.21" transform="translate(-2.23 3.27) rotate(-1.36)"/><circle class="g" cx="136.55" cy="100.43" r="0.94" transform="translate(-2.37 3.3) rotate(-1.37)"/></g><path class="c" d="M39.56,104.59h-7.1a.85.85,0,0,0-.85.87v8.66a.85.85,0,0,0,.85.87h7.12A2.5,2.5,0,0,0,42,112.59V107A2.54,2.54,0,0,0,39.56,104.59Zm0,9H32.95v-7.7h6.61A1.16,1.16,0,0,1,40.62,107v5.58A1.11,1.11,0,0,1,39.57,113.62Z"/><path class="c" d="M39.57,115.29H32.46a1.16,1.16,0,0,1-1.16-1.18v-8.66a1.16,1.16,0,0,1,1.16-1.18h7.1A2.87,2.87,0,0,1,42.29,107v5.59A2.82,2.82,0,0,1,39.57,115.29ZM32.46,104.9a.54.54,0,0,0-.54.56v8.66a.54.54,0,0,0,.54.56h7.12a2.17,2.17,0,0,0,2.1-2.08V107a2.25,2.25,0,0,0-2.11-2.1Zm.18,9v-8.32h6.92A1.47,1.47,0,0,1,40.93,107v5.58a1.43,1.43,0,0,1-1.36,1.35H32.64Zm.62-7.7v7.08h6.31a.8.8,0,0,0,.74-.73V107a.85.85,0,0,0-.75-.77Z"/><path class="c" d="M55.64,104.59H50.33A2.5,2.5,0,0,0,47.76,107v7.36a.66.66,0,0,0,.67.67.67.67,0,0,0,.68-.67v-3.6h7.76v3.6a.67.67,0,0,0,1.35,0V107A2.51,2.51,0,0,0,55.64,104.59ZM56.86,107v2.46H49.11V107a1.17,1.17,0,0,1,1.24-1.08h5.28A1.17,1.17,0,0,1,56.86,107Z"/><path class="c" d="M57.54,115.35a1,1,0,0,1-1-1v-3.29H49.42v3.29a1,1,0,0,1-1,1,1,1,0,0,1-1-1V107a2.81,2.81,0,0,1,2.88-2.73h5.31A2.82,2.82,0,0,1,58.52,107v7.36A1,1,0,0,1,57.54,115.35Zm-8.75-4.88h8.38v3.91a.36.36,0,0,0,.37.36.36.36,0,0,0,.36-.36V107a2.2,2.2,0,0,0-2.26-2.11H50.33A2.19,2.19,0,0,0,48.07,107v7.36a.35.35,0,0,0,.35.36.36.36,0,0,0,.37-.36Zm8.38-.68H48.8V107a1.48,1.48,0,0,1,1.55-1.39h5.28A1.48,1.48,0,0,1,57.17,107Zm-7.76-.62h7.13V107a.86.86,0,0,0-.93-.77H50.35a.86.86,0,0,0-.93.77Z"/><path class="c" d="M71.35,104.59H63.71a.67.67,0,1,0,0,1.35h3.15c0,1.05,0,2.51,0,4V111c0,1.32,0,2.56,0,3.39a.68.68,0,0,0,1.36,0v-8.43h3.14a.67.67,0,1,0,0-1.35Z"/><path class="c" d="M67.53,115.35a1,1,0,0,1-1-1c0-.83,0-2.07,0-3.39v-2c0-1,0-2,0-2.78H63.71a1,1,0,1,1,0-2h7.64a1,1,0,1,1,0,2H68.52v8.12A1,1,0,0,1,67.53,115.35ZM63.71,104.9a.36.36,0,1,0,0,.72h3.46v.31c0,.84,0,1.94,0,3.09v2c0,1.32,0,2.56,0,3.39a.37.37,0,0,0,.74,0v-8.75h3.45a.36.36,0,1,0,0-.72Z"/><path class="c" d="M85,104.59H79.74A2.5,2.5,0,0,0,77.17,107v7.36a.66.66,0,0,0,.67.67.67.67,0,0,0,.68-.67v-3.6h7.75v3.6a.67.67,0,0,0,1.34,0V107A2.51,2.51,0,0,0,85,104.59ZM86.27,107v2.46H78.51V107a1.17,1.17,0,0,1,1.24-1.08H85A1.17,1.17,0,0,1,86.27,107Z"/><path class="c" d="M86.95,115.35a1,1,0,0,1-1-1v-3.29H78.82v3.29a1,1,0,0,1-1,1,1,1,0,0,1-1-1V107a2.81,2.81,0,0,1,2.88-2.73H85A2.82,2.82,0,0,1,87.92,107v7.36A1,1,0,0,1,86.95,115.35Zm-8.74-4.88h8.38v3.91a.36.36,0,0,0,.37.36.36.36,0,0,0,.36-.36V107A2.2,2.2,0,0,0,85,104.9H79.74A2.19,2.19,0,0,0,77.48,107v7.36a.35.35,0,0,0,.35.36.36.36,0,0,0,.37-.36Zm8.38-.68H78.2V107a1.48,1.48,0,0,1,1.55-1.39H85A1.48,1.48,0,0,1,86.58,107Zm-7.75-.62H86V107a.86.86,0,0,0-.93-.77H79.75a.86.86,0,0,0-.93.77Z"/><path class="c" d="M101.57,109.14H95.75c-.72,0-1-.84-1-1.62s.32-1.58,1-1.58h6.41a.67.67,0,1,0,0-1.35H95.73c-1.55,0-2.36,1.48-2.36,2.94s.75,3,2.41,3h5.73c.73,0,1.06.84,1.06,1.62s-.32,1.54-1,1.54H94.17a.67.67,0,0,0,0,1.34h7.36c1.64,0,2.38-1.52,2.38-2.93S103.11,109.14,101.57,109.14Z"/><path class="c" d="M101.53,115.29H94.17a1,1,0,0,1,0-2h7.37c.52,0,.71-.74.71-1.23s-.2-1.3-.75-1.31H95.77c-1.87,0-2.72-1.69-2.72-3.26s.92-3.25,2.68-3.25h6.41a1,1,0,1,1,0,2H95.73c-.52,0-.71.76-.71,1.27s.2,1.31.74,1.31h5.82c1.74,0,2.65,1.62,2.65,3.22S103.38,115.29,101.53,115.29Zm-7.36-1.34a.36.36,0,0,0,0,.72h7.36c1.42,0,2.07-1.36,2.07-2.62s-.7-2.6-2-2.6H95.75c-.93,0-1.36-1-1.36-1.93s.42-1.89,1.33-1.89h6.41a.36.36,0,1,0,0-.72H95.73c-1.35,0-2.05,1.32-2.05,2.62s.66,2.64,2.09,2.64h5.73c.95,0,1.38,1,1.37,1.93s-.42,1.85-1.33,1.85Z"/><path class="c" d="M117,104.59h-8.31a.67.67,0,1,0,0,1.35h3.82c0,1.05,0,2.51,0,4,0,1.7,0,3.41,0,4.47a.68.68,0,0,0,1.36,0v-8.43H117a.67.67,0,1,0,0-1.35Z"/><path class="c" d="M113.23,115.35a1,1,0,0,1-1-1c0-1.06,0-2.77,0-4.47v-3.65h-3.51a1,1,0,1,1,0-2H117a1,1,0,1,1,0,2h-2.83v8.12A1,1,0,0,1,113.23,115.35Zm-4.49-10.45a.36.36,0,1,0,0,.72h4.14v4.28c0,1.7,0,3.41,0,4.47a.37.37,0,0,0,.74,0v-8.75H117a.36.36,0,1,0,0-.72Z"/><path class="c" d="M130.74,104.59h-5.31a2.5,2.5,0,0,0-2.57,2.42v7.36a.66.66,0,0,0,.67.67.67.67,0,0,0,.68-.67v-3.6H132v3.6a.67.67,0,0,0,1.35,0V107A2.51,2.51,0,0,0,130.74,104.59ZM132,107v2.46H124.2V107a1.17,1.17,0,0,1,1.24-1.08h5.28A1.17,1.17,0,0,1,132,107Z"/><path class="c" d="M132.64,115.35a1,1,0,0,1-1-1v-3.29h-7.13v3.29a1,1,0,0,1-1,1,1,1,0,0,1-1-1V107a2.81,2.81,0,0,1,2.88-2.73h5.31a2.82,2.82,0,0,1,2.88,2.73v7.36A1,1,0,0,1,132.64,115.35Zm-8.75-4.88h8.38v3.91a.36.36,0,0,0,.37.36.36.36,0,0,0,.35-.36V107a2.2,2.2,0,0,0-2.26-2.11h-5.31a2.19,2.19,0,0,0-2.26,2.11v7.36a.35.35,0,0,0,.36.36.36.36,0,0,0,.37-.36Zm8.38-.68h-8.38V107a1.48,1.48,0,0,1,1.55-1.39h5.28a1.48,1.48,0,0,1,1.55,1.39Zm-7.75-.62h7.13V107a.86.86,0,0,0-.93-.77h-5.28a.86.86,0,0,0-.93.77Z"/></g></svg>