<svg id="Layer_1" data-name="Layer 1" xmlns="http://www.w3.org/2000/svg" viewBox="0 0 506 193"><defs><style>.cls-1{fill-rule:evenodd;}.cls-2{fill:#faaf34;}</style></defs><title>logo-aws</title><path class="cls-1" d="M396.87,143.14a3.66,3.66,0,1,1,3.66,3.67,3.66,3.66,0,0,1-3.66-3.67"/><path d="M400.53,147.22a4.09,4.09,0,1,1,4.08-4.09A4.09,4.09,0,0,1,400.53,147.22Zm0-7.34a3.25,3.25,0,1,0,3.24,3.25A3.25,3.25,0,0,0,400.53,139.89Z"/><path d="M200.22,154a1.09,1.09,0,0,0-.17-1,1.93,1.93,0,0,0-1.57-.72h-2.12a2.17,2.17,0,0,0-2,1.38l-6.45,22.71-6.38-22.66a1.91,1.91,0,0,0-1.77-1.43h-2.52a1.88,1.88,0,0,0-1.75,1.44l-5.93,22.43-6.13-22.5a2.24,2.24,0,0,0-2.06-1.37H158.3a2,2,0,0,0-1.59.73,1.05,1.05,0,0,0-.18,1L166,187.55a1.86,1.86,0,0,0,1.71,1.41h3a1.84,1.84,0,0,0,1.75-1.45l5.83-22.33,6.34,22.36a1.86,1.86,0,0,0,1.7,1.42h3a1.8,1.8,0,0,0,1.74-1.43Z"/><path d="M230.94,178.41a1.77,1.77,0,0,0-1.17-.82l-3-.58a2,2,0,0,0-2,1,8.23,8.23,0,0,1-7.48,5.33,8.68,8.68,0,0,1-7.53-4.87,15.91,15.91,0,0,1-1.28-7h21.81a1.83,1.83,0,0,0,1.27-.54,1.39,1.39,0,0,0,.43-1c-0.05-8.67-4-17.92-15-17.92s-15.79,9.59-15.79,18.51c0,11.12,6.14,18.31,15.65,18.31,6.81,0,12-3.44,14.23-9.44A1.27,1.27,0,0,0,230.94,178.41Zm-22.23-11.85c0.37-4.51,3.3-9.18,8.26-9.36,5.28,0.17,7.69,4.74,7.81,9.36H208.71Z"/><path d="M265.74,169.78a23.1,23.1,0,0,0-3.14-12.18,12.51,12.51,0,0,0-10.36-5.82h-0.58a10,10,0,0,0-8.61,4.56V142.21a1.69,1.69,0,0,0-1.72-1.52H238.2a1.71,1.71,0,0,0-1.74,1.52v44.11a1.7,1.7,0,0,0,1.73,1.53h0.92a1.87,1.87,0,0,0,1.7-1.35l1-3.11a11.53,11.53,0,0,0,9.39,5.14h0.56C261.41,188.52,265.74,179.11,265.74,169.78Zm-7,.87c0,2.05-.37,12.3-7.65,12.56a8.12,8.12,0,0,1-6.28-3.65,13.74,13.74,0,0,1-1.76-6.56v-6c0.12-4.62,3.37-9.69,8-9.88C258.39,157.38,258.76,168.44,258.76,170.65Z"/><path d="M304.19,177.82a9.86,9.86,0,0,0-4.1-8.16c-2-1.47-4.49-2-6.95-2.45l-4.71-.87c-3.38-.56-5.34-1.46-5.34-4.44,0-3.15,3.27-4.36,6-4.43,3.38,0.09,5.93,1.59,7.16,4.25a1.83,1.83,0,0,0,1.62,1,1.58,1.58,0,0,0,.35,0l2.94-.65a1.82,1.82,0,0,0,1.17-.86,1.27,1.27,0,0,0,.12-1c-1.8-5.24-6.36-8-13.27-8-6.24,0-12.91,2.79-12.91,10.54,0,5.3,3.33,8.66,9.9,10l5.27,1c2.89,0.55,5.85,1.54,5.85,4.65,0,4.6-5.35,5.07-7,5.1-3.63-.08-7.74-1.7-8.74-5.13a1.75,1.75,0,0,0-2-1.11l-3.07.63a1.78,1.78,0,0,0-1.13.8,1.35,1.35,0,0,0-.17,1.06c1.59,5.69,7.08,9.12,14.7,9.18h0.17C296.92,188.9,304.19,186,304.19,177.82Z"/><path d="M337.34,178.44a1.77,1.77,0,0,0-1.17-.82l-3-.58a2,2,0,0,0-2,1,8.24,8.24,0,0,1-7.48,5.33,8.67,8.67,0,0,1-7.53-4.87,15.85,15.85,0,0,1-1.28-7h21.81a1.82,1.82,0,0,0,1.26-.54,1.39,1.39,0,0,0,.43-1c0-8.66-4-17.92-15-17.92s-15.8,9.59-15.8,18.51c0,11.12,6.14,18.31,15.65,18.31,6.81,0,12-3.44,14.24-9.45A1.27,1.27,0,0,0,337.34,178.44ZM315.11,166.6c0.37-4.51,3.29-9.19,8.25-9.36,5.28,0.17,7.69,4.74,7.82,9.36H315.11Z"/><path d="M349.49,171a13.64,13.64,0,0,1,1.53-7.11c1.83-3.41,4.4-5.09,7.83-5.12a1.66,1.66,0,0,0,1.62-1.61v-3a1.69,1.69,0,0,0-1.56-1.58,11.09,11.09,0,0,0-1.23-.07c-3.66,0-6.63,2-8.69,5.79v-3.33a1.68,1.68,0,0,0-1.72-1.51h-2.72a1.66,1.66,0,0,0-1.69,1.53v32.34a1.65,1.65,0,0,0,1.69,1.52h3.18a1.74,1.74,0,0,0,1.77-1.52V171Z"/><path d="M394.07,153.62a1.05,1.05,0,0,0-.17-1,2,2,0,0,0-1.62-.75h-2.51a2.24,2.24,0,0,0-2,1.39l-8.13,25.57-8.31-25.54a2.24,2.24,0,0,0-2-1.42h-3.58a2,2,0,0,0-1.62.75,1.05,1.05,0,0,0-.17,1l11.37,33.73a1.93,1.93,0,0,0,1.71,1.45h4.34a1.88,1.88,0,0,0,1.75-1.45Z"/><path d="M404.05,153.28a1.75,1.75,0,0,0-1.8-1.58h-3.44a1.77,1.77,0,0,0-1.79,1.59l0,34.34a1.5,1.5,0,0,0,.58,1.14,1.93,1.93,0,0,0,1.21.44h3.47a1.75,1.75,0,0,0,1.78-1.58V153.28Z"/><path d="M436.2,176.64a1.36,1.36,0,0,0-.35-1,2,2,0,0,0-1.43-.65h-2.87a1.85,1.85,0,0,0-1.77,1.32c-1.05,4.53-3.43,6.88-7,7-7-.21-7.57-10-7.57-13,0-6,2.07-12.42,7.84-12.59,3.48,0.11,6,2.61,6.78,6.68a1.88,1.88,0,0,0,1.65,1.57l3.08,0a1.73,1.73,0,0,0,1.63-1.66c-1.09-7.36-6.19-12.12-13-12.12h-0.5c-9.91,0-14.35,9.25-14.35,18.42,0,8.4,3.74,18.22,14.29,18.22h0.5C429.75,188.85,434.76,184.19,436.2,176.64Z"/><path d="M469,178.44a1.75,1.75,0,0,0-1.17-.82l-3-.58a2,2,0,0,0-2,1,8.25,8.25,0,0,1-7.48,5.33,8.67,8.67,0,0,1-7.53-4.87,15.88,15.88,0,0,1-1.29-7h21.81a1.82,1.82,0,0,0,1.27-.54,1.38,1.38,0,0,0,.42-1c0-8.66-4-17.92-15-17.92s-15.79,9.59-15.79,18.51c0,11.12,6.15,18.31,15.65,18.31,6.8,0,12-3.44,14.23-9.44A1.28,1.28,0,0,0,469,178.44ZM446.73,166.6c0.37-4.51,3.29-9.19,8.26-9.36,5.28,0.17,7.69,4.74,7.81,9.36H446.73Z"/><path d="M501.37,177.82a9.86,9.86,0,0,0-4.1-8.16c-2-1.47-4.5-2-6.95-2.45l-4.71-.87c-3.38-.56-5.33-1.46-5.33-4.44,0-4.07,5-4.41,6-4.43,3.39,0.09,5.93,1.59,7.16,4.25a1.83,1.83,0,0,0,1.62,1,1.59,1.59,0,0,0,.35,0l2.94-.65a1.82,1.82,0,0,0,1.17-.86,1.26,1.26,0,0,0,.12-1c-1.8-5.24-6.36-8-13.27-8-6.24,0-12.91,2.79-12.91,10.54,0,5.3,3.33,8.66,9.9,10l5.27,1c2.89,0.55,5.85,1.54,5.85,4.65,0,4.6-5.35,5.07-7,5.1-3.37-.07-7.68-1.46-8.74-5.12a1.75,1.75,0,0,0-2-1.12l-3.07.63a1.79,1.79,0,0,0-1.14.81,1.34,1.34,0,0,0-.17,1.06c1.58,5.69,7.07,9.12,14.69,9.18h0.17C494.1,188.9,501.37,186,501.37,177.82Z"/><path class="cls-1" d="M355.89,84.94v-7.8a1.93,1.93,0,0,1,2-2H392.8a2,2,0,0,1,2,2v6.69c0,1.12-1,2.58-2.63,4.91l-18.09,25.84c6.71-.16,13.82.85,19.92,4.28a3.58,3.58,0,0,1,1.86,3v8.32c0,1.15-1.26,2.47-2.57,1.78a40.25,40.25,0,0,0-36.92.06c-1.21.65-2.49-.66-2.49-1.8v-7.91a9.43,9.43,0,0,1,1.3-5.36l21-30.08H357.91a2,2,0,0,1-2-2"/><path class="cls-1" d="M228.45,133.63H217.82a2,2,0,0,1-1.9-1.8V77.28a2,2,0,0,1,2.05-2h9.9a2,2,0,0,1,1.94,1.83v7.13H230c2.58-6.89,7.44-10.1,14-10.1s10.81,3.21,13.79,10.1a15.7,15.7,0,0,1,27-4.14c3.37,4.59,2.68,11.25,2.68,17.1v34.43a2,2,0,0,1-2,2H274.78a2,2,0,0,1-1.91-2V102.75c0-2.29.2-8-.3-10.22-0.8-3.68-3.18-4.7-6.25-4.7A7.06,7.06,0,0,0,260,92.3c-1.09,2.76-1,7.35-1,10.45v28.92a2,2,0,0,1-2,2H246.31a2,2,0,0,1-1.91-2V102.75c0-6.08,1-15-6.54-15s-7.34,8.72-7.34,15v28.92a2,2,0,0,1-2,2"/><path class="cls-1" d="M424.89,74.17c15.77,0,24.31,13.54,24.31,30.76,0,16.65-9.43,29.85-24.31,29.85-15.48,0-23.92-13.55-23.92-30.42s8.53-30.19,23.92-30.19M425,85.3c-7.84,0-8.33,10.68-8.33,17.33s-0.1,20.89,8.24,20.89S433.53,112,433.53,105c0-4.59-.2-10.1-1.59-14.46C430.75,86.79,428.37,85.3,425,85.3Z"/><path class="cls-1" d="M469.66,133.63H459.07a2,2,0,0,1-1.91-2V77.09a2,2,0,0,1,2-1.78H469a2,2,0,0,1,1.89,1.53v8.35h0.2c3-7.46,7.14-11,14.48-11,4.76,0,9.43,1.72,12.4,6.43,2.78,4.36,2.78,11.71,2.78,17v34.33a2,2,0,0,1-2,1.72H488.11a2,2,0,0,1-1.89-1.72V102.29c0-6,.7-14.69-6.65-14.69A7,7,0,0,0,473.41,92c-1.49,3.33-1.69,6.66-1.69,10.33v29.38a2,2,0,0,1-2.07,2"/><path class="cls-1" d="M328,107.58c0,4.14.1,7.6-2,11.27-1.69,3-4.38,4.83-7.36,4.83-4.07,0-6.46-3.11-6.46-7.71,0-9.05,8.12-10.7,15.81-10.7v2.3m10.71,25.92a2.2,2.2,0,0,1-2.51.25c-3.53-2.93-4.16-4.29-6.09-7.09-5.83,5.94-10,7.73-17.52,7.73-9,0-15.91-5.52-15.91-16.57a18.05,18.05,0,0,1,11.33-17.37c5.77-2.53,13.82-3,20-3.69V95.38c0-2.53.2-5.52-1.29-7.71a7.09,7.09,0,0,0-6-2.76c-4.05,0-7.66,2.08-8.54,6.38a2.24,2.24,0,0,1-1.85,2l-10.3-1.12a1.87,1.87,0,0,1-1.59-2.22c2.37-12.5,13.65-16.28,23.77-16.28,5.17,0,11.93,1.38,16,5.29C343.45,83.76,343,90.2,343,97.22v16.56c0,5,2.07,7.17,4,9.85,0.67,1,.83,2.11,0,2.83-2.17,1.82-6,5.17-8.15,7.06Z"/><path class="cls-1" d="M188.71,107.58c0,4.14.1,7.6-2,11.27-1.69,3-4.38,4.83-7.36,4.83-4.08,0-6.46-3.11-6.46-7.71,0-9.05,8.12-10.7,15.81-10.7v2.3m10.72,25.92a2.21,2.21,0,0,1-2.51.25c-3.53-2.93-4.16-4.29-6.09-7.09-5.83,5.94-10,7.73-17.52,7.73-8.95,0-15.91-5.52-15.91-16.57a18.06,18.06,0,0,1,11.34-17.37c5.77-2.53,13.82-3,20-3.69V95.38c0-2.53.2-5.52-1.29-7.71a7.1,7.1,0,0,0-6-2.76c-4.05,0-7.66,2.08-8.54,6.38a2.24,2.24,0,0,1-1.85,2l-10.3-1.12a1.87,1.87,0,0,1-1.59-2.22c2.37-12.5,13.65-16.28,23.77-16.28,5.17,0,11.93,1.38,16,5.29,5.17,4.83,4.67,11.28,4.67,18.29v16.56c0,5,2.07,7.17,4,9.85,0.68,1,.83,2.11,0,2.83-2.17,1.82-6,5.17-8.15,7.06Z"/><polygon class="cls-2" points="40.51 138.4 40.51 180.15 69.99 190.06 69.99 147.83 40.51 138.4"/><polygon class="cls-2" points="76.87 147.84 106.25 138.41 106.25 180.16 76.87 190.08 76.87 147.84"/><polyline class="cls-2" points="100.61 133.71 73.44 124.83 46.26 133.69 73.48 142.51 100.61 133.71"/><polygon class="cls-2" points="4.18 77.22 4.18 118.97 33.65 128.89 33.65 86.65 4.18 77.22"/><polygon class="cls-2" points="40.54 86.66 69.91 77.24 69.91 118.98 40.54 128.9 40.54 86.66"/><polyline class="cls-2" points="64.28 72.53 37.1 63.65 9.92 72.51 37.15 81.33 64.28 72.53"/><polygon class="cls-2" points="76.85 77.22 76.85 118.97 106.32 128.89 106.32 86.65 76.85 77.22"/><polygon class="cls-2" points="113.21 86.66 142.58 77.24 142.58 118.98 113.21 128.9 113.21 86.66"/><polyline class="cls-2" points="136.95 72.53 109.77 63.65 82.59 72.51 109.82 81.33 136.95 72.53"/><polygon class="cls-2" points="114.16 16.3 114.16 58.04 143.63 67.96 143.63 25.72 114.16 16.3"/><polygon class="cls-2" points="150.52 25.73 179.89 16.31 179.89 58.05 150.52 67.97 150.52 25.73"/><polyline class="cls-2" points="174.26 11.6 147.08 2.72 119.9 11.59 147.13 20.4 174.26 11.6"/><polygon class="cls-2" points="186.31 16.3 186.31 58.04 215.79 67.96 215.79 25.72 186.31 16.3"/><polygon class="cls-2" points="222.68 25.73 252.05 16.31 252.05 58.05 222.68 67.97 222.68 25.73"/><polyline class="cls-2" points="246.42 11.6 219.24 2.72 192.06 11.59 219.29 20.4 246.42 11.6"/></svg>