<svg xmlns="http://www.w3.org/2000/svg" viewBox="0 0 256 256"><defs><style>.cls-1,.cls-3{fill:#fff;}.cls-2{fill:#b2e7e2;}.cls-3{stroke:#f60;stroke-linecap:round;stroke-linejoin:round;stroke-width:8px;}</style></defs><title>Asset 10</title><g id="Layer_2" data-name="Layer 2"><g id="circles"><path class="cls-1" d="M128,252A124,124,0,1,1,252,128,124.14,124.14,0,0,1,128,252Z"/><path class="cls-2" d="M128,8a120,120,0,0,1,84.85,204.85A120,120,0,0,1,43.15,43.15,119.21,119.21,0,0,1,128,8m0-8A128,128,0,1,0,256,128,128,128,0,0,0,128,0Z"/></g><g id="icons"><path class="cls-3" d="M84.4,72.7H95.59A3.4,3.4,0,0,1,99,76.1v33.48a3.4,3.4,0,0,0,3.4,3.4h16.73a3.4,3.4,0,0,0,3.4-3.4V76.1a3.4,3.4,0,0,1,3.4-3.4h11.93a3.4,3.4,0,0,1,3.4,3.4v34.66a3.4,3.4,0,0,0,3.4,3.4H177.6a3.4,3.4,0,0,1,3.4,3.4V169a3.4,3.4,0,0,1-3.4,3.4H84.4A3.4,3.4,0,0,1,81,169V76.1A3.4,3.4,0,0,1,84.4,72.7Z"/><rect class="cls-3" x="143.17" y="134.08" width="19" height="19"/></g></g></svg>