<svg xmlns="http://www.w3.org/2000/svg" viewBox="0 0 256 256"><defs><style>.cls-1{fill:#fff;}.cls-2{fill:#b2e7e2;}.cls-3{fill:none;stroke:#00ae9e;stroke-linecap:round;stroke-linejoin:round;stroke-width:6.96px;}</style></defs><title>Asset 12</title><g id="Layer_2" data-name="Layer 2"><g id="circles"><path class="cls-1" d="M128,252A124,124,0,1,1,252,128,124.14,124.14,0,0,1,128,252Z"/><path class="cls-2" d="M128,8a120,120,0,0,1,84.85,204.85A120,120,0,1,1,43.15,43.15,119.21,119.21,0,0,1,128,8m0-8A128,128,0,1,0,256,128,128,128,0,0,0,128,0Z"/></g><g id="icons"><circle class="cls-3" cx="128" cy="90.4" r="27.96"/><path class="cls-3" d="M158.6,121.94c-6.79,0-25.39,19.18-30.6,19.18s-23.81-19.18-30.6-19.18c-20.43,0-17,25.27-17,41.72s-.29,18.86,15.82,18.86h63.64c16.11,0,15.82-2.53,15.82-18.86S179,121.94,158.6,121.94Z"/></g></g></svg>