<svg xmlns="http://www.w3.org/2000/svg" viewBox="0 0 256 256"><defs><style>.a{fill:#fff;}.b{fill:#c2e0db;}.c{fill:#6abd46;}.d{fill:none;stroke:#6abd46;stroke-miterlimit:10;stroke-width:8px;}</style></defs><title>Asset 1</title><path class="a" d="M128,252A124,124,0,1,1,252,128,124.14,124.14,0,0,1,128,252Z"/><path class="b" d="M128,8a120,120,0,0,1,84.85,204.85A120,120,0,1,1,43.15,43.15,119.21,119.21,0,0,1,128,8m0-8A128,128,0,1,0,256,128,128,128,0,0,0,128,0Z"/><path class="c" d="M101.8,156.87a3.21,3.21,0,1,1-.47-4.52A3.21,3.21,0,0,1,101.8,156.87Zm51-11.25C143.5,158,123.7,153.81,111,154.4c0,0-2.25.13-4.51.5,0,0,.86-.37,1.95-.74,8.91-3.08,13.12-3.7,18.55-6.48,10.17-5.21,20.31-16.57,22.36-28.37-3.87,11.35-15.66,21.11-26.38,25.08-7.34,2.71-20.62,5.35-20.62,5.35l-.54-.28c-9-4.39-9.29-24,7.11-30.26,7.19-2.77,14.07-1.25,21.84-3.1,8.29-2,17.89-8.18,21.79-16.31C156.94,112.77,162.19,133.07,152.77,145.63Z"/><path class="d" d="M181.2,110.71a4.94,4.94,0,0,1-1.31-2.51,35.43,35.43,0,0,0-6-11.44A74,74,0,0,0,162.8,84.9a50.21,50.21,0,0,0-57-4.35c-8.22,4.82-14.22,11.86-19.7,19.53-.56.78-.7,1.29-1.63,1.42a35.79,35.79,0,0,0,4.37,71.32h82.53a31.59,31.59,0,0,0,24.89-51,32.43,32.43,0,0,0-12.08-9.54A12.08,12.08,0,0,1,181.2,110.71Z"/></svg>