<svg xmlns="http://www.w3.org/2000/svg" viewBox="0 0 256 256"><defs><style>.a{fill:#fff;}.b{fill:#b2e7e2;}.c{fill:#00ae9e;}</style></defs><title>Asset 1</title><circle class="a" cx="128" cy="128" r="128"/><path class="b" d="M128,8a120,120,0,0,1,84.85,204.85A120,120,0,1,1,43.15,43.15,119.21,119.21,0,0,1,128,8m0-8A128,128,0,1,0,256,128,128,128,0,0,0,128,0Z"/><path class="c" d="M70.91,115a4,4,0,0,0,0-8H59.12a4,4,0,0,0,0,8Z"/><path class="c" d="M39.5,123.42c-5.28,0-8.35,5.1-8.35,9.65,0,3.92,2.43,6.48,6.08,6.48,5.28,0,8.35-5.1,8.35-9.65C45.58,126,43.15,123.42,39.5,123.42Zm-2,13c-1.72,0-2.83-1.16-2.83-3.36,0-2.9,1.78-6.57,4.57-6.57,1.72,0,2.83,1.16,2.83,3.36C42.06,132.78,40.28,136.46,37.5,136.46Z"/><path class="c" d="M54.52,123.47h0a6.56,6.56,0,0,0-1.67.29l-2.72.76a1.61,1.61,0,0,0-1.2,1.54,1.32,1.32,0,0,0,1.36,1.4,2,2,0,0,0,.4,0L52,127.1l-2.72,10.09c-.38,1.4.22,2.23,1.36,2.23a2,2,0,0,0,1.89-1.72l3.32-12.39A1.35,1.35,0,0,0,54.52,123.47Z"/><path class="c" d="M72.74,129.91c0-3.92-2.43-6.48-6.08-6.48-5.28,0-8.35,5.1-8.35,9.65,0,3.92,2.43,6.48,6.08,6.48C69.67,139.55,72.74,134.45,72.74,129.91Zm-10.92,3.19c0-2.9,1.78-6.57,4.57-6.57,1.72,0,2.83,1.16,2.83,3.36,0,2.9-1.78,6.57-4.57,6.57C62.94,136.46,61.82,135.3,61.82,133.09Z"/><path class="c" d="M83.59,123.42c-5.28,0-8.35,5.1-8.35,9.65,0,3.92,2.43,6.48,6.08,6.48,5.28,0,8.35-5.1,8.35-9.65C89.67,126,87.24,123.42,83.59,123.42Zm-2,13c-1.72,0-2.83-1.16-2.83-3.36,0-2.9,1.78-6.57,4.57-6.57,1.72,0,2.83,1.16,2.83,3.36C86.15,132.78,84.37,136.46,81.58,136.46Z"/><path class="c" d="M106.6,129.91c0-3.92-2.43-6.48-6.08-6.48-5.28,0-8.35,5.1-8.35,9.65,0,3.92,2.43,6.48,6.08,6.48C103.53,139.55,106.6,134.45,106.6,129.91Zm-10.92,3.19c0-2.9,1.78-6.57,4.57-6.57,1.72,0,2.83,1.16,2.83,3.36,0,2.9-1.78,6.57-4.57,6.57C96.8,136.46,95.69,135.3,95.69,133.09Z"/><path class="c" d="M123.54,129.91c0-3.92-2.43-6.48-6.08-6.48-5.28,0-8.35,5.1-8.35,9.65,0,3.92,2.43,6.48,6.08,6.48C120.46,139.55,123.54,134.45,123.54,129.91Zm-10.92,3.19c0-2.9,1.78-6.57,4.57-6.57,1.72,0,2.83,1.16,2.83,3.36,0,2.9-1.78,6.57-4.57,6.57C113.73,136.46,112.62,135.3,112.62,133.09Z"/><path class="c" d="M128.57,139.42a2,2,0,0,0,1.89-1.72l3.32-12.39a1.35,1.35,0,0,0-1.31-1.85h0a6.55,6.55,0,0,0-1.67.29l-2.72.76a1.61,1.61,0,0,0-1.2,1.54,1.32,1.32,0,0,0,1.36,1.4,2,2,0,0,0,.4,0l1.31-.31-2.72,10.09C126.83,138.59,127.44,139.42,128.57,139.42Z"/><path class="c" d="M142.81,123.47h0a6.55,6.55,0,0,0-1.67.29l-2.72.76a1.61,1.61,0,0,0-1.2,1.54,1.32,1.32,0,0,0,1.36,1.4,2,2,0,0,0,.4,0l1.31-.31-2.72,10.09c-.38,1.4.22,2.23,1.36,2.23a2,2,0,0,0,1.89-1.72l3.32-12.39A1.35,1.35,0,0,0,142.81,123.47Z"/><path class="c" d="M72.48,146.25c-5.28,0-8.35,5.1-8.35,9.65,0,3.92,2.43,6.48,6.08,6.48,5.28,0,8.35-5.1,8.35-9.65C78.56,148.81,76.13,146.25,72.48,146.25Zm-2,13c-1.72,0-2.83-1.16-2.83-3.36,0-2.9,1.78-6.57,4.57-6.57,1.72,0,2.83,1.16,2.83,3.36C75,155.61,73.26,159.29,70.47,159.29Z"/><path class="c" d="M87.49,146.3h0a6.56,6.56,0,0,0-1.67.29l-2.72.76a1.61,1.61,0,0,0-1.2,1.54,1.32,1.32,0,0,0,1.36,1.4,2,2,0,0,0,.4,0l1.31-.31L82.23,160c-.38,1.4.22,2.23,1.36,2.23a2,2,0,0,0,1.89-1.72l3.32-12.39A1.35,1.35,0,0,0,87.49,146.3Z"/><path class="c" d="M97.36,162.38c5.28,0,8.35-5.1,8.35-9.65,0-3.92-2.43-6.48-6.08-6.48-5.28,0-8.35,5.1-8.35,9.65C91.28,159.82,93.71,162.38,97.36,162.38Zm2-13c1.72,0,2.83,1.16,2.83,3.36,0,2.9-1.78,6.57-4.57,6.57-1.72,0-2.83-1.16-2.83-3.36C94.8,153,96.58,149.35,99.37,149.35Z"/><path class="c" d="M114.29,162.38c5.28,0,8.35-5.1,8.35-9.65,0-3.92-2.43-6.48-6.08-6.48-5.28,0-8.35,5.1-8.35,9.65C108.21,159.82,110.64,162.38,114.29,162.38Zm2-13c1.72,0,2.83,1.16,2.83,3.36,0,2.9-1.78,6.57-4.57,6.57-1.72,0-2.83-1.16-2.83-3.36C111.73,153,113.51,149.35,116.3,149.35Z"/><path class="c" d="M131.23,162.38c5.28,0,8.35-5.1,8.35-9.65,0-3.92-2.43-6.48-6.08-6.48-5.28,0-8.35,5.1-8.35,9.65C125.14,159.82,127.57,162.38,131.23,162.38Zm2-13c1.72,0,2.83,1.16,2.83,3.36,0,2.9-1.78,6.57-4.57,6.57-1.72,0-2.83-1.16-2.83-3.36C128.67,153,130.45,149.35,133.23,149.35Z"/><path class="c" d="M148.16,162.38c5.28,0,8.35-5.1,8.35-9.65,0-3.92-2.43-6.48-6.08-6.48-5.28,0-8.35,5.1-8.35,9.65C142.08,159.82,144.5,162.38,148.16,162.38Zm2-13c1.72,0,2.83,1.16,2.83,3.36,0,2.9-1.78,6.57-4.57,6.57-1.72,0-2.83-1.16-2.83-3.36C145.6,153,147.38,149.35,150.16,149.35Z"/><path class="c" d="M161.55,162.25a2,2,0,0,0,1.89-1.72l3.32-12.39a1.35,1.35,0,0,0-1.31-1.85h0a6.55,6.55,0,0,0-1.67.29l-2.72.76a1.61,1.61,0,0,0-1.2,1.54,1.32,1.32,0,0,0,1.36,1.4,2,2,0,0,0,.4,0l1.31-.31L160.19,160C159.81,161.42,160.41,162.25,161.55,162.25Z"/><path class="c" d="M171.89,162.25a2,2,0,0,0,1.89-1.72l3.32-12.39a1.35,1.35,0,0,0-1.31-1.85h0a6.55,6.55,0,0,0-1.67.29l-2.72.76a1.61,1.61,0,0,0-1.2,1.54,1.32,1.32,0,0,0,1.36,1.4,2,2,0,0,0,.4,0l1.31-.31L170.53,160C170.15,161.42,170.75,162.25,171.89,162.25Z"/><path class="c" d="M209.53,132.78c-3.94-5-9.94-7.86-16.94-8,1.09-9.32-1.21-18-6.67-24.9-5.85-7.37-15-11.8-25.15-12.35a22.46,22.46,0,0,0-5.86-13.72,27.3,27.3,0,0,0-20.29-8.55c-11,0-23.43,7.15-30.31,17.27H82.62a4,4,0,0,0,0,8H106.5a4,4,0,0,0,3.45-2c5.12-8.72,15.72-15.29,24.67-15.29A19.3,19.3,0,0,1,149,79.16a14.34,14.34,0,0,1,3.78,8.74,33.8,33.8,0,0,0-18.48,9.2,20.34,20.34,0,0,0-10.66-2.65c-7.37.39-14.53,5-19.52,12.54H86.8a4,4,0,0,0,0,8h19.53a4,4,0,0,0,3.47-2c1.36-2.37,6.42-10.13,14.25-10.54,4.41-.23,8.34,2.95,8.36,3a4,4,0,0,0,5.72-.61c4.46-5.72,12.21-9.31,20.21-9.36,8.88-.06,16.46,3.28,21.32,9.39s6.37,14.27,4.28,23a4,4,0,0,0,3.89,4.93H192c4.76,0,8.77,1.76,11.28,5,2.65,3.38,3.43,8,2.18,13.09-2.71,11-13.83,20-24.8,20H94.83a4,4,0,0,0,0,8h85.79c14.66,0,29-11.45,32.56-26.06C215,145.22,213.73,138.14,209.53,132.78Z"/></svg>