<svg xmlns="http://www.w3.org/2000/svg" viewBox="0 0 256 256"><defs><style>.cls-1{fill:#fff;}.cls-2{fill:#b2e7e2;}.cls-3{fill:#00ae9e;}.cls-4,.cls-5{fill:none;stroke:#00ae9e;stroke-miterlimit:10;stroke-width:8px;}.cls-5{stroke-linecap:round;}</style></defs><title>Asset 4</title><g id="Layer_2" data-name="Layer 2"><g id="circles"><path class="cls-1" d="M128,252A124,124,0,1,1,252,128,124.14,124.14,0,0,1,128,252Z"/><path class="cls-2" d="M128,8a120,120,0,0,1,84.85,204.85A120,120,0,0,1,43.15,43.15,119.21,119.21,0,0,1,128,8m0-8A128,128,0,1,0,256,128,128,128,0,0,0,128,0Z"/></g><g id="icons"><path class="cls-3" d="M170.6,153.18l3.34.93a1.65,1.65,0,0,1,.92,2.51l-14.18,20.8a1.65,1.65,0,0,1-1.33.72l-45,.69a1.65,1.65,0,0,0-1,.4l-5.74,4.92a1.65,1.65,0,0,1-2.32-.18l-12.1-14.22a1.65,1.65,0,0,1,.12-2.26l17.16-16.19a1.65,1.65,0,0,1,1.18-.45l31.5,1a1.65,1.65,0,0,1,1.51,1.12l.86,2.58a1.65,1.65,0,0,1,0,1.15l-1.13,2.71a1.65,1.65,0,0,1-1.47,1l-8.86.28a1.65,1.65,0,0,0-1.58,1.46h0A1.65,1.65,0,0,0,134,164l21,.64a1.65,1.65,0,0,0,1.1-.38l13-10.76A1.65,1.65,0,0,1,170.6,153.18Z"/><path class="cls-3" d="M85.64,170.32l-3.79,3.23a2.83,2.83,0,0,0-.32,4l14.51,17a2.83,2.83,0,0,0,4,.32l3.79-3.23a2.83,2.83,0,0,0,.32-4l-14.51-17A2.83,2.83,0,0,0,85.64,170.32Zm12.64,20.52a3,3,0,1,1,2.37-2.37A3,3,0,0,1,98.28,190.84Z"/><ellipse class="cls-4" cx="132.97" cy="74.6" rx="28.72" ry="12.14"/><path class="cls-5" d="M160.83,96.92s-27,13.38-55.23,0"/><path class="cls-5" d="M160.7,112.52s-27,13.38-55.23,0"/><path class="cls-5" d="M160.95,128.13s-27,13.38-55.23,0"/></g></g></svg>