<svg id="Layer_1" data-name="Layer 1" xmlns="http://www.w3.org/2000/svg" viewBox="0 0 1113.64 242.73"><defs><style>.cls-1{fill:#231f20;}</style></defs><title>Forgerock Logo Master 2016_1Cblackhorizontal</title><path class="cls-1" d="M251.58,102.24h69.86v18.31H272.81v17.28H314v16.7H272.81v35.59H251.58V102.24Z"/><path class="cls-1" d="M326.58,146.18c0-25.19,17.72-45.84,46.86-45.84,29.43,0,47.16,20.65,47.16,45.84S402.88,192,373.45,192C344.3,192,326.58,171.37,326.58,146.18Zm72.05,0c0-15.23-11-25.34-25.19-25.34-13.91,0-24.9,10.11-24.9,25.34s11,25.34,24.9,25.34C387.65,171.51,398.64,161.41,398.64,146.18Z"/><path class="cls-1" d="M435.38,102.24h41.45c22.26,0,36.46,11.42,36.46,30.61,0,12.3-5.56,21.09-14.64,26.21V161l19.77,27.68v1.46H494.26L477,164.48H456.62v25.63H435.38V102.24Zm40.57,18.31H456.62v26.36H476.1c9.81,0,15.23-4.4,15.23-13.18C491.33,125.23,485.76,120.55,475.95,120.55Z"/><path class="cls-1" d="M570.79,137.83H615v9.81C615,173.27,601.1,192,573,192c-29.29,0-47-20.65-47-45.84s17.72-45.84,47-45.84c23.29,0,33.1,11,33.1,11l-12.59,16.11a35.67,35.67,0,0,0-20.8-6.74c-14.21,0-24.75,10.25-24.75,25.48s10.55,25.48,24.75,25.48c12.59,0,19.19-7.62,19.48-16.26v-0.88H570.79v-16.7Z"/><path class="cls-1" d="M690.65,154.52H652V171.8H700.6v18.31H630.74V102.24H700.6v18.31H652v17.28h38.66v16.7Z"/><path class="cls-1" d="M717.93,102.24h41.45c22.26,0,36.47,11.42,36.47,30.61,0,12.3-5.57,21.09-14.65,26.21V161L801,188.65v1.46H776.81l-17.28-25.63H739.17v25.63H717.93V102.24Zm40.57,18.31H739.17v26.36h19.47c9.82,0,15.23-4.4,15.23-13.18C773.88,125.23,768.32,120.55,758.5,120.55Z"/><path class="cls-1" d="M807.58,146.18c0-25.19,17.72-45.84,46.86-45.84,29.44,0,47.16,20.65,47.16,45.84S883.89,192,854.45,192C825.3,192,807.58,171.37,807.58,146.18Zm72.06,0c0-15.23-11-25.34-25.19-25.34-13.91,0-24.9,10.11-24.9,25.34s11,25.34,24.9,25.34C868.65,171.51,879.64,161.41,879.64,146.18Z"/><path class="cls-1" d="M991.58,181.33S981.77,192,960.24,192c-29.44,0-47.16-20.65-47.16-45.84s17.72-45.84,47.16-45.84c21.67,0,31.34,10.69,31.34,10.69l-12.15,16.26s-9.08-6.59-18.89-6.59c-14.94,0-25.49,10.25-25.49,25.48s10.55,25.48,25.49,25.48c12.45,0,18.89-6.59,18.89-6.59Z"/><path class="cls-1" d="M1024,140l35.88-37.78h25.92v1.9L1051.93,140l33.83,48v2H1060c-7.76-11.42-15.23-23-22.85-34.56L1024,169.61v20.5h-21.24V102.24H1024V140Z"/><path class="cls-1" d="M1101.07,100.94a7.69,7.69,0,0,1,3.72,1,7,7,0,0,1,2.8,2.78,7.56,7.56,0,0,1,0,7.55,7.11,7.11,0,0,1-2.79,2.79,7.56,7.56,0,0,1-7.52,0,7.11,7.11,0,0,1-2.79-2.79,7.56,7.56,0,0,1,0-7.55,7,7,0,0,1,2.8-2.78A7.69,7.69,0,0,1,1101.07,100.94Zm0,1.48a6.15,6.15,0,0,0-3,.78,5.65,5.65,0,0,0-2.25,2.24,6.09,6.09,0,0,0,0,6.08,5.73,5.73,0,0,0,2.24,2.25,6,6,0,0,0,6,0,5.78,5.78,0,0,0,2.24-2.25,6.07,6.07,0,0,0,0-6.08,5.64,5.64,0,0,0-2.26-2.24A6.18,6.18,0,0,0,1101.08,102.42Zm-3.42,10.11v-8h1.63q2.29,0,2.56,0a3.16,3.16,0,0,1,1.26.32,2,2,0,0,1,.75.77,2.24,2.24,0,0,1,.3,1.15,2.11,2.11,0,0,1-.57,1.48,2.58,2.58,0,0,1-1.59.76,2,2,0,0,1,.56.3,4,4,0,0,1,.54.62q0.09,0.12.59,1l0.95,1.62h-2l-0.67-1.3a5.42,5.42,0,0,0-1.12-1.65,1.79,1.79,0,0,0-1.12-.34h-0.42v3.29h-1.63Zm1.63-4.55h0.66a8,8,0,0,0,1.75-.11,1,1,0,0,0,.73-1,1,1,0,0,0-.19-0.6,1.05,1.05,0,0,0-.55-0.37,7.77,7.77,0,0,0-1.74-.11h-0.66V108Z"/><polygon class="cls-1" points="144.37 24.05 75.19 145.62 97.62 185.25 166.62 63.33 144.37 24.05"/><polygon class="cls-1" points="178.46 84.14 109.47 205.93 127.33 237.89 161.23 237.89 213.38 146.05 213.44 145.94 178.46 84.14"/><polygon class="cls-1" points="66.18 25.79 3.81 135.76 57.89 135.72 132.86 3.81 66.18 25.79"/><polygon class="cls-1" points="103.85 237.89 57.53 156.3 3.54 156.22 49.76 237.89 103.85 237.89"/></svg>