<?xml version="1.0" encoding="utf-8"?>
<!-- Generator: Adobe Illustrator 19.2.1, SVG Export Plug-In . SVG Version: 6.00 Build 0)  -->
<!DOCTYPE svg PUBLIC "-//W3C//DTD SVG 1.1//EN" "http://www.w3.org/Graphics/SVG/1.1/DTD/svg11.dtd">
<svg version="1.1" id="Layer_1" xmlns="http://www.w3.org/2000/svg" xmlns:xlink="http://www.w3.org/1999/xlink" x="0px" y="0px"
	 viewBox="0 0 402 122.1" style="enable-background:new 0 0 402 122.1;" xml:space="preserve">
<style type="text/css">
	.st0{fill:#010101;}
	.st1{fill:#939598;}
	.st2{fill:#4FC0B0;}
</style>
<g>
	<path class="st0" d="M355.7,23.9c0-0.5,0.2-0.9,0.5-1.2s0.7-0.4,1.2-0.4h39c0.4,0,0.8,0.1,1.2,0.4c0.3,0.2,0.6,0.7,0.6,1.2v9
		c0,0.4-0.1,0.9-0.4,1.2s-0.7,0.6-1.3,0.6h-12.5v39.7c0,0.4-0.2,0.8-0.5,1.2c-0.3,0.4-0.7,0.5-1.2,0.5h-10.6c-0.4,0-0.8-0.2-1.2-0.5
		c-0.4-0.3-0.6-0.7-0.6-1.2V34.6h-12.5c-0.5,0-0.9-0.2-1.2-0.5c-0.3-0.3-0.5-0.7-0.5-1.4L355.7,23.9L355.7,23.9z M318.4,58
		c-0.2-0.1-0.5-0.2-0.7-0.2c-0.3,0-0.7,0.2-1.2,0.6l-6.3,6c-0.6,0.5-0.8,1-0.8,1.4c0,0.4,0.2,0.9,0.8,1.4l0.1,0.1l0.1,0.1l0.1,0.1
		l0.1,0.1l0.1,0.1c0.4,0.4,0.9,0.9,1.6,1.6c0.7,0.7,1.5,1.4,2.4,2.1c2.3,1.7,4.8,3,7.5,4c2.7,1,5.4,1.5,8.2,1.5
		c2.9,0,5.7-0.4,8.3-1.2c2.6-0.8,4.8-2,6.7-3.5c1.9-1.5,3.4-3.4,4.5-5.5c1.1-2.2,1.6-4.5,1.6-7.2c0-2.5-0.4-4.7-1.3-6.4
		c-0.9-1.7-2.1-3.3-3.7-4.5s-3.4-2.4-5.6-3.3c-2.2-0.9-4.5-1.8-7.1-2.7c-1.3-0.4-2.5-0.8-3.5-1.2c-1-0.4-1.9-0.7-2.5-1.2
		c-0.7-0.4-1.2-0.9-1.5-1.4c-0.3-0.5-0.5-1.1-0.5-1.7c0-0.7,0.2-1.2,0.5-1.7c0.3-0.5,0.7-0.9,1.2-1.1c0.6-0.3,1.1-0.5,1.9-0.6
		c0.7-0.1,1.4-0.2,2.2-0.2c0.7,0,1.6,0.1,2.3,0.4c0.7,0.2,1.4,0.5,2.1,0.9s1.3,0.7,1.9,1.2c0.6,0.4,1.1,0.9,1.6,1.2l0.3,0.3
		c0.3,0.3,0.6,0.6,0.9,0.7c0.2,0.2,0.6,0.3,0.9,0.3c0.4,0,0.8-0.2,1.2-0.6l5.5-5.9c0.3-0.3,0.6-0.6,0.7-0.9c0.2-0.2,0.2-0.6,0.2-0.9
		c0-0.3-0.2-0.7-0.5-1.1c-0.3-0.4-0.7-0.9-1.3-1.4c-0.6-0.5-1.2-1-1.9-1.5c-0.7-0.5-1.5-1-2.4-1.5c-1.9-1.1-3.9-1.9-6-2.4
		c-2-0.5-4.1-0.7-6.3-0.7c-2.9,0-5.5,0.4-7.9,1.1c-2.4,0.7-4.4,1.7-6,3.1c-1.7,1.3-3,2.9-3.9,4.7c-0.9,1.8-1.4,3.9-1.4,6.1
		c0,2.1,0.4,4,1.1,5.8c0.7,1.7,1.8,3.3,3.2,4.7s3.2,2.7,5.4,3.9c2.2,1.2,4.7,2.2,7.6,3.3c0.6,0.2,1.4,0.5,2.3,0.8
		c0.9,0.3,1.7,0.7,2.6,1.2c0.8,0.4,1.5,1,2.1,1.6s0.9,1.2,0.9,2c0,0.7-0.1,1.3-0.3,1.9c-0.2,0.6-0.6,1.1-1.1,1.6
		c-0.5,0.4-1.1,0.8-2,1.1c-0.8,0.2-1.9,0.4-3.1,0.4c-1.3,0-2.6-0.2-3.8-0.7c-1.2-0.4-2.4-1.1-3.7-1.9c-0.8-0.6-1.6-1.1-2.2-1.7
		c-0.6-0.6-1.2-1-1.6-1.4C318.9,58.4,318.7,58.2,318.4,58 M282.7,39.2c-0.4,1.2-5.1,15.3-5.6,16.6h11.1L282.7,39.2z M308.8,75.6
		c-0.2,0.3-0.7,0.4-1.4,0.4h-10.4c-0.6,0-1-0.1-1.3-0.3c-0.3-0.2-0.6-0.6-0.7-1.1c-0.5-1.2-2.3-6.1-2.8-7.3H273
		c-0.4,1.2-2.3,6.1-2.8,7.3c-0.3,0.9-0.9,1.4-1.9,1.4h-10.7c-0.4,0-0.8-0.1-1.1-0.4s-0.4-0.6-0.2-1.1L276,23.7
		c0-0.1,0.1-0.3,0.2-0.5s0.3-0.3,0.5-0.5c0.2-0.1,0.4-0.2,0.6-0.4c0.2-0.1,0.4-0.1,0.6-0.1h9.3c0.4,0,0.7,0.1,1.1,0.4
		c0.3,0.2,0.5,0.5,0.6,0.7l0.9,2.1l19,49.1C309.1,74.9,309.1,75.3,308.8,75.6 M238.2,40c0,0.7-0.1,1.6-0.4,2.2
		c-0.2,0.7-0.6,1.4-1.1,2c-0.4,0.6-1,1.1-1.7,1.5c-0.7,0.4-1.4,0.6-2.3,0.7c-0.4,0.1-0.8,0.1-1.1,0.1c-0.3,0-0.7,0.1-1.2,0.1h-6.7
		V33.3h5c0.7,0,1.4,0,1.9,0.1c0.6,0.1,1.2,0.1,1.9,0.1c0.8,0.1,1.6,0.4,2.2,0.8c0.7,0.4,1.2,0.9,1.7,1.5c0.5,0.6,0.9,1.2,1.1,2
		C238,38.6,238.2,39.3,238.2,40 M254,74.9c0-0.3-0.1-0.7-0.4-1.2c-0.2-0.4-0.5-0.9-0.6-1.2l-9.3-17.6c1.3-0.7,2.5-1.6,3.6-2.7
		s2.1-2.2,2.9-3.5c0.8-1.3,1.4-2.7,1.9-4.2c0.4-1.5,0.7-3.1,0.7-4.7c0-2.4-0.4-4.7-1.4-6.8c-0.9-2.1-2.2-4-3.8-5.6
		c-1.6-1.6-3.5-2.9-5.7-3.8c-2.2-0.9-4.5-1.4-7-1.4h-23.4c-0.6,0-0.9,0.1-1.2,0.4c-0.2,0.3-0.4,0.7-0.4,1.2v50.6
		c0,0.6,0.1,0.9,0.4,1.2c0.3,0.2,0.7,0.4,1.2,0.4h10.8c1.1,0,1.7-0.5,1.7-1.6V58.2h5.9l8.8,16.6c0.1,0.4,0.3,0.7,0.6,1
		c0.3,0.2,0.7,0.4,1.1,0.4h12.5c0.4,0,0.8-0.1,1.1-0.3C253.9,75.5,254,75.2,254,74.9 M160,23.9c0-0.5,0.2-0.9,0.5-1.2
		c0.3-0.3,0.7-0.4,1.2-0.4h39c0.4,0,0.8,0.1,1.2,0.4c0.3,0.2,0.6,0.7,0.6,1.2v9c0,0.4-0.1,0.9-0.4,1.2c-0.3,0.4-0.7,0.6-1.3,0.6
		h-12.5v39.7c0,0.4-0.2,0.8-0.5,1.2c-0.3,0.4-0.7,0.5-1.2,0.5h-10.6c-0.4,0-0.8-0.2-1.2-0.5c-0.4-0.3-0.6-0.7-0.6-1.2V34.6h-12.5
		c-0.5,0-0.9-0.2-1.2-0.5c-0.3-0.3-0.5-0.7-0.5-1.4v-8.9H160z M105.1,74.5c0,0.4,0.1,0.8,0.4,1.1c0.2,0.3,0.7,0.4,1.2,0.4H117
		c0.6,0,1.1-0.1,1.3-0.4c0.2-0.2,0.4-0.7,0.4-1.2V43.4c3.2,5.3,15.9,26.2,19.1,31.5c0.2,0.4,0.5,0.6,0.7,0.9
		c0.2,0.2,0.5,0.3,0.8,0.3h11.6c0.5,0,0.9-0.1,1.2-0.4c0.3-0.2,0.4-0.6,0.4-1.1V23.9c0-0.5-0.2-0.9-0.5-1.2
		c-0.3-0.2-0.7-0.4-1.2-0.4h-10.3c-0.4,0-0.7,0.1-1,0.4c-0.3,0.2-0.5,0.6-0.6,1v29c-3.1-4.9-15.2-24.3-18.3-29.3
		c-0.2-0.4-0.6-0.7-0.9-0.9c-0.4-0.2-0.7-0.2-1.1-0.2h-11.8c-0.6,0-0.9,0.2-1.2,0.5c-0.2,0.3-0.4,0.7-0.4,1.1L105.1,74.5L105.1,74.5
		z"/>
	<path class="st0" d="M68,65.5c0-0.7,0.1-3.2,2.7-3.2c0,0,7.6-0.3,11.1-5.7C85.5,51.1,84,44,81,40.2c-3.7-4.7-9.2-4.5-9.5-4.5
		c-0.4,0-3.4,0.1-3.4-2.7s0-8,0-8.5c0-0.6,0.2-2.9,2.9-2.9c8,0,13.6,2.4,18.3,6.2c6.8,5.5,10,14.2,10,20.4c0,5.8-1,8.3-1.9,11.1
		c-1.3,3.9-5,8.5-7.3,10.5c-9.1,7.9-19.2,6.9-19.2,6.9s-2.7-0.1-2.7-2.8C68,72.2,68,65.5,68,65.5z"/>
</g>
<polygon class="st1" points="60.9,3.4 60.9,3.4 60.9,93.3 57.5,93.3 57.5,3.4 "/>
<path class="st1" d="M378.9,108.9l8.5-15.4h-4l-6.5,11.3l-6.6-11.3h-3.9L375,109v7.5h3.9L378.9,108.9L378.9,108.9z M353.7,97v-3.5
	h-18.5V97h7.3v19.6h3.9V97H353.7z M319.5,93.5h-3.9v23.1h3.9V93.5z M283.2,106.1V97h5.5c3.5,0,5.6,1.4,5.6,4.5
	c0,3.1-2.1,4.7-5.6,4.7H283.2z M294,116.6h4.4l-5.2-7.7c3.1-1.2,4.8-3.8,4.8-7.5c0-5-3.4-7.9-9.3-7.9h-9.4v23.1h3.9v-7h5.5
	c0.4,0,0.7,0,1.1-0.1L294,116.6z M261.4,93.5h-3.9V107c0,3.9-2.4,6.2-6.1,6.2c-3.8,0-6.2-2.4-6.2-6.2V93.5h-3.9V107
	c0,6,3.9,9.7,10.1,9.7c6.2,0,10-3.7,10-9.7L261.4,93.5L261.4,93.5z M216.5,93.4c-6.8,0-12.1,5-12.1,11.6c0,6.7,5.2,11.8,12,11.8
	c3.2,0,6.6-1.5,9-3.8l-2.3-2.6c-1.7,1.7-4.1,2.7-6.4,2.7c-4.6,0-8.3-3.6-8.3-8.2c0-4.5,3.6-8.1,8.3-8.1c2.4,0,4.7,1.1,6.4,2.9
	l2.3-2.9C223.1,94.7,219.9,93.4,216.5,93.4 M188.8,97v-3.5h-16.5v23.1h16.9v-3.5h-13v-6.4h11.3v-3.5h-11.3V97L188.8,97L188.8,97z
	 M147,93.4c-5,0-8.4,2.5-8.4,6.4c0,8.2,12.5,5.4,12.5,10.5c0,1.8-1.6,2.8-4.3,2.8c-2.5,0-5.4-1.2-7.8-3.4l-1.7,3.4
	c2.4,2.2,5.8,3.7,9.5,3.7c5.1,0,8.7-2.6,8.7-6.7c0.1-8.3-12.5-5.6-12.5-10.6c0-1.6,1.5-2.4,3.7-2.4c1.7,0,4.2,0.6,6.8,2.1l1.6-3.4
	C152.9,94.3,150,93.4,147,93.4"/>
<path class="st2" d="M50.4,65.1c0,0-0.1-2.7-2.7-2.7s-9.8,0-12.3,0c-5.3,0-8.8-0.3-12.4-5.7c-3.5-5.4-2.1-12.3,0.9-16.4
	c3.6-4.8,9-4.5,10.4-4.5s12.1,0,12.8,0c1.7,0,3.3-0.6,3.3-2.7c0-2.7,0-7.5,0-8.5c0-1.4-0.8-2.9-2.9-2.9c-2.6,0-6.8,0-14.1,0
	c-7,0-13,2.4-17.7,6.2c-6.8,5.5-10,14.2-10,20.4c0,5.8,1,8.3,1.9,11.1c1.3,3.9,9,17.4,25.5,17.4c11,0,13.5,0,14.2,0
	c1.2,0,3.1-0.4,3.1-2.8C50.4,71.3,50.4,65.1,50.4,65.1z"/>
</svg>
