<?xml version="1.0" encoding="utf-8"?>
<!-- Generator: Adobe Illustrator 18.1.1, SVG Export Plug-In . SVG Version: 6.00 Build 0)  -->
<svg version="1.1" id="Layer_1" xmlns="http://www.w3.org/2000/svg" xmlns:xlink="http://www.w3.org/1999/xlink" x="0px" y="0px"
	 viewBox="0 0 512 512" enable-background="new 0 0 512 512" xml:space="preserve">
<g>
	<polygon fill="#0066AB" points="350.1,195.9 76,339.2 76,408.8 350.1,265.6 	"/>
	<polygon fill="#008774" points="111.2,380 301.8,57.5 247.4,26.7 56.8,349.1 	"/>
	<path fill="#0066AB" d="M256,440.4L84.3,350.6v-206l-57.9-30.3v256.4c0,11.1,8,24.4,17.9,29.5L256,511V440.4z"/>
	<path fill="#00AE9E" d="M427.7,144.6v157.9L264.6,26.7l-54.4,30.9l183.7,310.7L256,440.4V511l211.8-110.8
		c9.8-5.1,17.9-18.4,17.9-29.5V114.3L427.7,144.6z"/>
	<path fill="#009FDF" d="M485.6,114.3L278.9,5.9c-12.6-6.6-33.2-6.6-45.8,0L26.4,114.3l57.9,30.3l171.7-90l171.7,90L485.6,114.3z"/>
</g>
</svg>
