<?xml version="1.0" encoding="UTF-8"?><svg id="c" xmlns="http://www.w3.org/2000/svg" viewBox="0 0 16 16"><g id="d"><g><path d="M1.761,14.527c-.068,0-.137-.021-.195-.066C.203,13.422,0,12.198,0,11.56V4.454C0,3.816,.203,2.592,1.566,1.553c.141-.108,.343-.08,.451,.061,.108,.141,.08,.343-.061,.451-1.085,.827-1.313,1.756-1.313,2.389v7.107c0,.633,.228,1.562,1.313,2.389,.141,.108,.168,.309,.061,.451-.063,.083-.159,.127-.256,.127Z" fill="#78be20"/><path d="M14.239,14.527c-.097,0-.193-.044-.256-.127-.108-.141-.08-.343,.061-.451,1.085-.827,1.313-1.756,1.313-2.389V4.454c0-.633-.228-1.561-1.313-2.389-.141-.108-.168-.309-.061-.451,.108-.141,.309-.168,.451-.061,1.363,1.039,1.566,2.263,1.566,2.9v7.107c0,.637-.204,1.861-1.567,2.901-.058,.044-.127,.066-.195,.066Z" fill="#0091da"/><g><path d="M12.226,2.216c-1.134-.479-2.635-.743-4.226-.743s-3.092,.264-4.226,.743c-1.222,.516-1.895,1.237-1.895,2.029,0,.052,.003,.103,.009,.154-.005,.024-.009,.048-.009,.073v2.877c0,1.794,2.689,3.199,6.122,3.199,1.012,0,2.012-.128,2.894-.371,.171-.047,.272-.224,.225-.395-.047-.171-.224-.272-.395-.225-.827,.228-1.769,.348-2.724,.348-2.97,0-5.478-1.17-5.478-2.556v-1.835c.312,.283,.732,.54,1.252,.76,1.134,.479,2.635,.743,4.226,.743s3.092-.264,4.226-.743c1.222-.516,1.895-1.237,1.895-2.029s-.673-1.513-1.895-2.029Zm-.25,3.466c-1.057,.447-2.469,.692-3.976,.692s-2.919-.246-3.976-.692c-.955-.403-1.502-.927-1.502-1.437s.548-1.033,1.502-1.437c1.057-.447,2.469-.692,3.976-.692s2.919,.246,3.976,.692c.955,.403,1.502,.927,1.502,1.437s-.548,1.033-1.502,1.437Z" fill="#1d428a"/><path d="M12.307,12.881c-1.063,.537-2.633,.845-4.307,.845-1.507,0-2.919-.246-3.976-.692-.955-.403-1.502-.927-1.502-1.437v-2.068c0-.178-.144-.322-.322-.322s-.322,.144-.322,.322v2.068c0,.792,.673,1.513,1.895,2.029,1.134,.479,2.635,.743,4.226,.743,1.772,0,3.448-.333,4.598-.915,.159-.08,.222-.274,.142-.432-.08-.159-.274-.222-.432-.142Z" fill="#1d428a"/></g><path d="M9.201,12.494c-.163,0-.303-.124-.32-.29-.017-.177,.112-.334,.289-.352,.406-.04,.801-.099,1.176-.176,.174-.036,.344,.077,.38,.251s-.077,.344-.251,.38c-.396,.081-.814,.144-1.242,.186-.011,.001-.021,.002-.032,.002Z" fill="#1d428a"/><path d="M7.565,12.529s-.003,0-.005,0c-.579-.008-1.127-.05-1.673-.127-.176-.025-.298-.188-.274-.363s.187-.298,.363-.274c.52,.073,1.041,.113,1.593,.121,.178,.003,.319,.149,.317,.326-.003,.176-.146,.317-.321,.317Z" fill="#78be20"/><circle cx="12.126" cy="11.632" r=".322" fill="#1d428a"/><circle cx="13.686" cy="11.019" r=".322" fill="#0091da"/><path d="M9.201,8.784c-.163,0-.303-.124-.32-.29-.017-.177,.112-.334,.289-.352,.406-.04,.801-.099,1.176-.176,.174-.036,.344,.077,.38,.251s-.077,.344-.251,.38c-.396,.081-.814,.144-1.242,.186-.011,.001-.021,.002-.032,.002Z" fill="#1d428a"/><path d="M7.565,8.818s-.003,0-.005,0c-.579-.008-1.127-.05-1.673-.127-.176-.025-.298-.188-.274-.363s.187-.298,.363-.274c.52,.073,1.041,.113,1.593,.121,.178,.003,.319,.149,.317,.326-.003,.176-.146,.317-.321,.317Z" fill="#78be20"/><circle cx="12.126" cy="7.922" r=".322" fill="#1d428a"/><circle cx="13.686" cy="7.308" r=".322" fill="#0091da"/></g></g></svg>