<?xml version="1.0" encoding="UTF-8"?><svg id="a" xmlns="http://www.w3.org/2000/svg" viewBox="0 0 400 400"><g id="b"><g><path d="M43.773,367.911c-1.7,0-3.413-.536-4.868-1.646C4.828,340.289-.26,309.684-.26,293.753V116.085c0-15.931,5.088-46.534,39.162-72.51,3.531-2.692,8.577-2.011,11.269,1.52,2.692,3.531,2.012,8.577-1.52,11.269C21.516,77.049,15.82,100.258,15.82,116.085v177.668c0,15.828,5.696,39.038,32.833,59.723,3.532,2.692,4.212,7.737,1.52,11.269-1.582,2.075-3.977,3.166-6.4,3.166Z" fill="#78be20"/><path d="M355.707,367.912c-2.423,0-4.818-1.091-6.4-3.167-2.692-3.531-2.012-8.576,1.52-11.268,27.137-20.686,32.833-43.896,32.833-59.724V116.085c0-15.828-5.696-39.037-32.831-59.722-3.531-2.692-4.212-7.737-1.52-11.269,2.692-3.531,7.737-4.212,11.269-1.52,34.074,25.976,39.162,56.58,39.162,72.511v177.668c0,15.931-5.088,46.536-39.165,72.512-1.456,1.11-3.169,1.646-4.869,1.646Z" fill="#0091da"/><g><path d="M305.399,60.157c-28.354-11.981-65.878-18.579-105.659-18.579s-77.304,6.598-105.658,18.579c-30.554,12.91-47.38,30.926-47.38,50.728,0,1.29,.075,2.571,.217,3.844-.137,.588-.216,1.198-.216,1.827v71.933c0,44.845,67.222,79.974,153.038,79.974,25.291,0,50.311-3.206,72.357-9.272,4.282-1.178,6.797-5.604,5.619-9.885-1.178-4.281-5.603-6.797-9.885-5.619-20.676,5.689-44.222,8.696-68.092,8.696-74.239,0-136.958-29.26-136.958-63.893v-45.878c7.792,7.087,18.297,13.508,31.299,19.002,28.354,11.981,65.877,18.579,105.658,18.579s77.305-6.598,105.659-18.579c30.554-12.91,47.38-30.926,47.38-50.729s-16.826-37.819-47.38-50.728Zm-6.259,86.645c-26.419,11.163-61.72,17.311-99.4,17.311s-72.981-6.148-99.4-17.311c-23.868-10.085-37.558-23.176-37.558-35.916s13.69-25.83,37.558-35.916c26.419-11.163,61.72-17.311,99.4-17.311s72.981,6.148,99.4,17.311c23.869,10.086,37.558,23.177,37.558,35.916s-13.689,25.831-37.558,35.916Z" fill="#1d428a"/><path d="M307.423,326.776c-26.569,13.433-65.818,21.137-107.683,21.137-37.68,0-72.981-6.148-99.4-17.311-23.868-10.086-37.558-23.177-37.558-35.916v-51.688c0-4.441-3.599-8.04-8.04-8.04s-8.04,3.599-8.04,8.04v51.688c0,19.803,16.826,37.818,47.38,50.728,28.354,11.981,65.877,18.579,105.658,18.579,44.302,0,86.195-8.335,114.938-22.866,3.963-2.004,5.551-6.84,3.548-10.803-2.003-3.963-6.841-5.551-10.803-3.548Z" fill="#1d428a"/></g><path d="M229.764,317.101c-4.086,0-7.584-3.103-7.992-7.255-.434-4.419,2.797-8.353,7.216-8.788,10.145-.996,20.037-2.473,29.399-4.392,4.348-.889,8.599,1.913,9.49,6.263s-1.913,8.599-6.263,9.49c-9.907,2.029-20.355,3.591-31.055,4.642-.267,.026-.532,.039-.795,.039Z" fill="#1d428a"/><path d="M188.872,317.963c-.04,0-.08,0-.121,0-14.482-.212-28.165-1.253-41.832-3.181-4.397-.62-7.458-4.688-6.838-9.084s4.687-7.46,9.084-6.838c12.993,1.833,26.019,2.823,39.822,3.025,4.44,.065,7.986,3.717,7.921,8.157-.064,4.399-3.652,7.922-8.037,7.922Z" fill="#78be20"/><circle cx="302.879" cy="295.54" r="8.04" fill="#1d428a"/><circle cx="341.878" cy="280.208" r="8.04" fill="#0091da"/><path d="M229.764,224.345c-4.086,0-7.584-3.103-7.992-7.255-.434-4.419,2.797-8.353,7.216-8.788,10.145-.996,20.037-2.473,29.399-4.392,4.348-.89,8.599,1.913,9.49,6.263s-1.913,8.599-6.263,9.49c-9.907,2.029-20.355,3.591-31.055,4.642-.267,.026-.532,.039-.795,.039Z" fill="#1d428a"/><path d="M188.872,225.207c-.04,0-.08,0-.121,0-14.482-.212-28.165-1.253-41.832-3.181-4.397-.62-7.458-4.688-6.838-9.084s4.687-7.461,9.084-6.838c12.993,1.833,26.019,2.823,39.822,3.025,4.44,.065,7.986,3.717,7.921,8.157-.064,4.399-3.652,7.922-8.037,7.922Z" fill="#78be20"/><circle cx="302.879" cy="202.784" r="8.04" fill="#1d428a"/><circle cx="341.878" cy="187.452" r="8.04" fill="#0091da"/></g></g></svg>